<svg viewBox="0 0 500 500" xmlns="http://www.w3.org/2000/svg">
  <path id="piece1" d="M 21 14 L 167 15 L 164 76 L 166 80 L 171 81 L 182 74 L 188 74 L 197 81 L 201 90 L 201 104 L 192 118 L 184 120 L 173 113 L 168 113 L 165 117 L 164 136 L 168 162 L 167 169 L 115 168 L 112 172 L 112 177 L 117 187 L 114 197 L 104 204 L 95 204 L 83 196 L 81 185 L 86 173 L 82 168 L 21 167 L 19 165 L 19 16 Z" fill="rgba(255,255,255,0.92)" stroke="#d8d8d8" stroke-width="1.5"/>
  <path id="piece2" d="M 168 15 L 331 15 L 332 78 L 341 81 L 355 72 L 369 77 L 377 94 L 375 109 L 368 119 L 359 123 L 350 121 L 338 113 L 332 117 L 330 122 L 332 167 L 329 170 L 267 167 L 262 170 L 268 183 L 267 190 L 255 199 L 245 199 L 233 189 L 233 181 L 237 175 L 235 168 L 226 166 L 170 169 L 166 118 L 174 115 L 183 121 L 192 120 L 201 109 L 203 92 L 196 78 L 188 71 L 177 73 L 170 78 L 166 77 Z" fill="rgba(255,255,255,0.92)" stroke="#d8d8d8" stroke-width="1.5"/>
  <path id="piece3" d="M 334 14 L 479 14 L 481 16 L 480 168 L 416 167 L 413 173 L 418 181 L 418 189 L 410 198 L 405 200 L 392 200 L 381 192 L 379 183 L 385 173 L 382 169 L 345 172 L 333 170 L 331 138 L 333 118 L 336 115 L 340 115 L 351 123 L 361 124 L 372 117 L 378 103 L 378 92 L 375 83 L 366 73 L 354 71 L 340 80 L 337 80 L 333 75 Z" fill="rgba(255,255,255,0.92)" stroke="#d8d8d8" stroke-width="1.5"/>
  <path id="piece4" d="M 21 169 L 80 169 L 84 172 L 80 185 L 81 194 L 88 203 L 98 206 L 108 204 L 117 194 L 118 185 L 113 174 L 116 169 L 139 168 L 168 171 L 168 226 L 172 231 L 183 225 L 190 226 L 198 237 L 199 254 L 196 263 L 189 270 L 182 270 L 174 264 L 170 265 L 168 269 L 167 327 L 132 330 L 115 328 L 120 310 L 115 303 L 104 298 L 90 298 L 78 304 L 74 314 L 80 323 L 80 327 L 75 330 L 20 327 L 19 172 Z" fill="rgba(255,255,255,0.92)" stroke="#d8d8d8" stroke-width="1.5"/>
  <path id="piece5" d="M 332 173 L 332 224 L 325 226 L 313 220 L 303 222 L 294 231 L 291 241 L 295 254 L 304 262 L 315 263 L 326 257 L 332 261 L 330 325 L 327 328 L 283 331 L 270 329 L 269 324 L 277 311 L 276 304 L 268 295 L 260 291 L 243 291 L 233 296 L 228 302 L 226 311 L 233 324 L 231 330 L 200 330 L 169 326 L 169 269 L 175 266 L 181 271 L 191 270 L 197 264 L 201 249 L 199 236 L 191 225 L 181 224 L 176 229 L 170 227 L 170 170 L 232 168 L 236 171 L 231 184 L 234 193 L 250 201 L 261 198 L 268 191 L 269 182 L 265 175 L 265 170 L 268 168 Z" fill="rgba(255,255,255,0.92)" stroke="#d8d8d8" stroke-width="1.5"/>
  <path id="piece6" d="M 479 169 L 481 171 L 481 327 L 421 331 L 416 328 L 423 317 L 421 311 L 411 304 L 395 302 L 383 305 L 376 311 L 375 319 L 381 326 L 378 331 L 366 332 L 334 328 L 331 324 L 333 260 L 329 256 L 314 262 L 302 260 L 297 255 L 293 244 L 296 230 L 304 223 L 314 222 L 326 228 L 332 226 L 334 220 L 333 175 L 335 173 L 382 171 L 383 174 L 378 181 L 380 193 L 389 200 L 401 202 L 411 199 L 419 190 L 419 180 L 414 172 L 417 168 Z" fill="rgba(255,255,255,0.92)" stroke="#d8d8d8" stroke-width="1.5"/>
  <path id="piece7" d="M 21 330 L 78 330 L 82 325 L 77 318 L 76 310 L 83 302 L 92 299 L 107 300 L 117 307 L 119 313 L 112 325 L 116 330 L 169 329 L 170 371 L 168 378 L 163 380 L 153 374 L 143 375 L 136 381 L 131 393 L 132 407 L 139 418 L 144 421 L 154 421 L 163 415 L 168 417 L 169 465 L 167 481 L 21 481 L 19 479 L 19 334 Z" fill="rgba(255,255,255,0.92)" stroke="#d8d8d8" stroke-width="1.5"/>
  <path id="piece8" d="M 170 330 L 188 329 L 212 332 L 233 330 L 235 324 L 228 314 L 228 306 L 236 296 L 245 292 L 263 294 L 274 303 L 275 313 L 267 326 L 271 331 L 329 329 L 328 378 L 330 382 L 337 383 L 344 378 L 354 376 L 360 378 L 367 385 L 371 395 L 369 409 L 360 419 L 351 421 L 337 414 L 332 414 L 328 418 L 330 480 L 170 481 L 170 418 L 168 415 L 162 414 L 155 419 L 145 420 L 136 413 L 132 402 L 134 387 L 142 377 L 151 375 L 164 382 L 170 377 L 172 372 Z" fill="rgba(255,255,255,0.92)" stroke="#d8d8d8" stroke-width="1.5"/>
  <path id="piece9" d="M 332 329 L 365 333 L 379 332 L 382 330 L 382 325 L 376 318 L 377 312 L 387 305 L 405 304 L 416 308 L 421 314 L 420 320 L 414 327 L 418 332 L 429 333 L 474 329 L 481 331 L 480 482 L 332 480 L 329 442 L 330 418 L 333 415 L 337 415 L 345 421 L 359 421 L 367 415 L 372 403 L 371 390 L 362 378 L 356 375 L 349 375 L 336 382 L 330 379 L 329 359 Z" fill="rgba(255,255,255,0.92)" stroke="#d8d8d8" stroke-width="1.5"/>
</svg>